<svg width="100" height="100" viewBox="0 0 100 100" fill="none" xmlns="http://www.w3.org/2000/svg">
<circle cx="50" cy="50" r="50" fill="#0C0C0D"/>
<path d="M27.0466 62L31.6686 38.1228H34.5338L40.6567 54.2058L46.7453 38.1228H49.6106L54.2496 62H50.6339L47.5469 46.0193L41.8335 61.0961H39.4457L33.7493 46.0193L30.6623 62H27.0466Z" fill="#E3E3E3"/>
<path d="M63.0984 62.4434C61.4838 62.4434 59.9659 62.1251 58.5446 61.4883C57.1234 60.8402 55.8727 59.9534 54.7925 58.8277C53.7237 57.6907 52.8823 56.3718 52.2683 54.8709C51.6657 53.3701 51.3644 51.7669 51.3644 50.0614C51.3644 48.3559 51.6657 46.7527 52.2683 45.2518C52.8823 43.751 53.7237 42.4377 54.7925 41.3121C55.8727 40.1751 57.1234 39.2882 58.5446 38.6515C59.9659 38.0034 61.4838 37.6793 63.0984 37.6793C65.0313 37.6793 66.8107 38.1284 68.4366 39.0267C70.0626 39.9249 71.4099 41.1188 72.4787 42.6083L69.3235 44.2967C68.5845 43.3644 67.6692 42.6196 66.5776 42.0625C65.4861 41.5054 64.3263 41.2268 63.0984 41.2268C61.9614 41.2268 60.8983 41.4599 59.9091 41.9261C58.9199 42.3922 58.05 43.029 57.2996 43.8362C56.5492 44.6435 55.9636 45.5816 55.5429 46.6503C55.1222 47.7191 54.9119 48.8561 54.9119 50.0614C54.9119 51.278 55.1222 52.4207 55.5429 53.4895C55.9636 54.5469 56.5492 55.4849 57.2996 56.3036C58.0614 57.1108 58.9369 57.7476 59.9261 58.2138C60.9153 58.6686 61.9727 58.896 63.0984 58.896C64.3491 58.896 65.5145 58.6174 66.5947 58.0603C67.6862 57.4917 68.5958 56.7413 69.3235 55.809L72.4787 57.5315C71.4099 59.021 70.0626 60.2149 68.4366 61.1131C66.8107 62 65.0313 62.4434 63.0984 62.4434Z" fill="#E3E3E3"/>
</svg>
