<svg width="100" height="100" viewBox="0 0 100 100" fill="none" xmlns="http://www.w3.org/2000/svg">
<circle cx="50" cy="50" r="50" fill="#0C0C0D"/>
<path d="M19.7425 65L25.9359 33.0045H29.7753L37.9799 54.5558L46.1388 33.0045H49.9782L56.1945 65H51.3495L47.2129 43.5859L39.5568 63.7887H36.3573L28.7241 43.5859L24.5875 65H19.7425Z" fill="#E3E3E3"/>
<path d="M68.0518 65.5942C65.8883 65.5942 63.8543 65.1676 61.9498 64.3144C60.0453 63.4459 58.3694 62.2575 56.922 60.7492C55.4898 59.2256 54.3623 57.4582 53.5396 55.4471C52.7321 53.4359 52.3283 51.2876 52.3283 49.0022C52.3283 46.7169 52.7321 44.5686 53.5396 42.5574C54.3623 40.5463 55.4898 38.7865 56.922 37.2782C58.3694 35.7546 60.0453 34.5662 61.9498 33.713C63.8543 32.8445 65.8883 32.4103 68.0518 32.4103C70.6419 32.4103 73.0264 33.0121 75.2051 34.2157C77.3838 35.4194 79.1893 37.0192 80.6215 39.0151L76.3935 41.2776C75.4032 40.0283 74.1767 39.0303 72.714 38.2838C71.2514 37.5372 69.6973 37.1639 68.0518 37.1639C66.5282 37.1639 65.1037 37.4762 63.7781 38.1009C62.4526 38.7256 61.2871 39.5788 60.2815 40.6606C59.2759 41.7423 58.4913 42.9993 57.9275 44.4315C57.3638 45.8636 57.0819 47.3872 57.0819 49.0022C57.0819 50.6325 57.3638 52.1637 57.9275 53.5959C58.4913 55.0128 59.2759 56.2698 60.2815 57.3668C61.3023 58.4485 62.4755 59.3018 63.801 59.9264C65.1265 60.5359 66.5435 60.8406 68.0518 60.8406C69.7278 60.8406 71.2895 60.4673 72.7369 59.7207C74.1995 58.9589 75.4184 57.9534 76.3935 56.704L80.6215 59.0123C79.1893 61.0082 77.3838 62.608 75.2051 63.8116C73.0264 65 70.6419 65.5942 68.0518 65.5942Z" fill="#E3E3E3"/>
</svg>
