<svg width="50" height="41" viewBox="0 0 50 41" fill="none" xmlns="http://www.w3.org/2000/svg">
<path d="M2.04662 32L6.66857 8.12275H9.53384L15.6567 24.2058L21.7453 8.12275H24.6106L29.2496 32H25.6339L22.5469 16.0193L16.8335 31.0961H14.4457L8.7493 16.0193L5.66232 32H2.04662Z" fill="white"/>
<path d="M38.0984 32.4434C36.4838 32.4434 34.9659 32.1251 33.5446 31.4883C32.1234 30.8402 30.8727 29.9534 29.7925 28.8277C28.7237 27.6907 27.8823 26.3718 27.2683 24.8709C26.6657 23.3701 26.3644 21.7669 26.3644 20.0614C26.3644 18.3559 26.6657 16.7527 27.2683 15.2518C27.8823 13.751 28.7237 12.4377 29.7925 11.3121C30.8727 10.1751 32.1234 9.28819 33.5446 8.65147C34.9659 8.00337 36.4838 7.67932 38.0984 7.67932C40.0313 7.67932 41.8107 8.12844 43.4366 9.02668C45.0626 9.92492 46.4099 11.1188 47.4787 12.6083L44.3235 14.2967C43.5845 13.3644 42.6692 12.6196 41.5776 12.0625C40.4861 11.5054 39.3263 11.2268 38.0984 11.2268C36.9614 11.2268 35.8983 11.4599 34.9091 11.9261C33.9199 12.3922 33.05 13.029 32.2996 13.8362C31.5492 14.6435 30.9636 15.5816 30.5429 16.6503C30.1222 17.7191 29.9119 18.8561 29.9119 20.0614C29.9119 21.278 30.1222 22.4207 30.5429 23.4895C30.9636 24.5469 31.5492 25.4849 32.2996 26.3036C33.0614 27.1108 33.9369 27.7476 34.9261 28.2138C35.9153 28.6686 36.9727 28.896 38.0984 28.896C39.3491 28.896 40.5145 28.6174 41.5947 28.0603C42.6862 27.4917 43.5958 26.7413 44.3235 25.809L47.4787 27.5315C46.4099 29.021 45.0626 30.2149 43.4366 31.1131C41.8107 32 40.0313 32.4434 38.0984 32.4434Z" fill="white"/>
</svg>
