<svg width="24" height="24" viewBox="0 0 24 24" fill="none" xmlns="http://www.w3.org/2000/svg">
<path d="M10.5999 12.71C10.5062 12.617 10.4318 12.5064 10.381 12.3846C10.3302 12.2627 10.3041 12.132 10.3041 12C10.3041 11.868 10.3302 11.7373 10.381 11.6154C10.4318 11.4936 10.5062 11.383 10.5999 11.29L15.1899 6.71001C15.2836 6.61704 15.358 6.50644 15.4088 6.38458C15.4596 6.26272 15.4857 6.13202 15.4857 6.00001C15.4857 5.86799 15.4596 5.73729 15.4088 5.61543C15.358 5.49357 15.2836 5.38297 15.1899 5.29001C15.0025 5.10376 14.7491 4.99921 14.4849 4.99921C14.2207 4.99921 13.9673 5.10376 13.7799 5.29001L9.18989 9.88001C8.62809 10.4425 8.31253 11.205 8.31253 12C8.31253 12.795 8.62809 13.5575 9.18989 14.12L13.7799 18.71C13.9662 18.8948 14.2176 18.9989 14.4799 19C14.6115 19.0008 14.742 18.9755 14.8638 18.9258C14.9856 18.876 15.0965 18.8027 15.1899 18.71C15.2836 18.617 15.358 18.5064 15.4088 18.3846C15.4596 18.2627 15.4857 18.132 15.4857 18C15.4857 17.868 15.4596 17.7373 15.4088 17.6154C15.358 17.4936 15.2836 17.383 15.1899 17.29L10.5999 12.71Z" fill="white"/>
</svg>
