<svg width="21" height="21" viewBox="0 0 21 21" fill="none" xmlns="http://www.w3.org/2000/svg">
<g clip-path="url(#clip0_223_1834)">
<path d="M20.7439 0.256554C20.5798 0.0925172 20.3573 0.000366211 20.1253 0.000366211C19.8933 0.000366211 19.6708 0.0925172 19.5067 0.256554L10.5003 9.26293L1.49393 0.256554C1.32984 0.0925172 1.10732 0.000366211 0.875301 0.000366211C0.643283 0.000366211 0.420763 0.0925172 0.256676 0.256554C0.0926393 0.420641 0.000488281 0.643161 0.000488281 0.875179C0.000488281 1.1072 0.0926393 1.32972 0.256676 1.4938L9.26305 10.5002L0.256676 19.5066C0.0926393 19.6706 0.000488281 19.8932 0.000488281 20.1252C0.000488281 20.3572 0.0926393 20.5797 0.256676 20.7438C0.420763 20.9078 0.643283 21 0.875301 21C1.10732 21 1.32984 20.9078 1.49393 20.7438L10.5003 11.7374L19.5067 20.7438C19.6708 20.9078 19.8933 21 20.1253 21C20.3573 21 20.5798 20.9078 20.7439 20.7438C20.908 20.5797 21.0001 20.3572 21.0001 20.1252C21.0001 19.8932 20.908 19.6706 20.7439 19.5066L11.7376 10.5002L20.7439 1.4938C20.908 1.32972 21.0001 1.1072 21.0001 0.875179C21.0001 0.643161 20.908 0.420641 20.7439 0.256554Z" fill="#424242"/>
</g>
<defs>
<clipPath id="clip0_223_1834">
<rect width="21" height="21" fill="white"/>
</clipPath>
</defs>
</svg>
