<svg width="24" height="24" viewBox="0 0 24 24" fill="none" xmlns="http://www.w3.org/2000/svg">
<g clip-path="url(#clip0_320_1759)">
<path d="M23 22H5C4.20435 22 3.44129 21.6839 2.87868 21.1213C2.31607 20.5587 2 19.7956 2 19V1C2 0.734784 1.89464 0.48043 1.70711 0.292893C1.51957 0.105357 1.26522 0 1 0C0.734784 0 0.48043 0.105357 0.292893 0.292893C0.105357 0.48043 0 0.734784 0 1L0 19C0.00158786 20.3256 0.528882 21.5964 1.46622 22.5338C2.40356 23.4711 3.6744 23.9984 5 24H23C23.2652 24 23.5196 23.8946 23.7071 23.7071C23.8946 23.5196 24 23.2652 24 23C24 22.7348 23.8946 22.4804 23.7071 22.2929C23.5196 22.1054 23.2652 22 23 22Z" fill="#424242"/>
<path d="M6.00024 19.9999C6.26546 19.9999 6.51981 19.8946 6.70735 19.707C6.89488 19.5195 7.00024 19.2652 7.00024 18.9999V11.9999C7.00024 11.7347 6.89488 11.4804 6.70735 11.2928C6.51981 11.1053 6.26546 10.9999 6.00024 10.9999C5.73503 10.9999 5.48067 11.1053 5.29314 11.2928C5.1056 11.4804 5.00024 11.7347 5.00024 11.9999V18.9999C5.00024 19.2652 5.1056 19.5195 5.29314 19.707C5.48067 19.8946 5.73503 19.9999 6.00024 19.9999Z" fill="#424242"/>
<path d="M9.99976 10V19C9.99976 19.2652 10.1051 19.5196 10.2927 19.7071C10.4802 19.8946 10.7345 20 10.9998 20C11.265 20 11.5193 19.8946 11.7069 19.7071C11.8944 19.5196 11.9998 19.2652 11.9998 19V10C11.9998 9.73478 11.8944 9.48043 11.7069 9.29289C11.5193 9.10536 11.265 9 10.9998 9C10.7345 9 10.4802 9.10536 10.2927 9.29289C10.1051 9.48043 9.99976 9.73478 9.99976 10Z" fill="#424242"/>
<path d="M15 13V19C15 19.2652 15.1054 19.5196 15.2929 19.7071C15.4804 19.8946 15.7348 20 16 20C16.2652 20 16.5196 19.8946 16.7071 19.7071C16.8947 19.5196 17 19.2652 17 19V13C17 12.7348 16.8947 12.4804 16.7071 12.2929C16.5196 12.1054 16.2652 12 16 12C15.7348 12 15.4804 12.1054 15.2929 12.2929C15.1054 12.4804 15 12.7348 15 13Z" fill="#424242"/>
<path d="M20.0002 8.99991V18.9999C20.0002 19.2651 20.1056 19.5195 20.2931 19.707C20.4807 19.8946 20.735 19.9999 21.0002 19.9999C21.2655 19.9999 21.5198 19.8946 21.7074 19.707C21.8949 19.5195 22.0003 19.2651 22.0003 18.9999V8.99991C22.0003 8.73469 21.8949 8.48034 21.7074 8.2928C21.5198 8.10527 21.2655 7.99991 21.0002 7.99991C20.735 7.99991 20.4807 8.10527 20.2931 8.2928C20.1056 8.48034 20.0002 8.73469 20.0002 8.99991Z" fill="#424242"/>
<path d="M5.99979 8.99995C6.26498 8.99989 6.51929 8.8945 6.70679 8.70695L10.2928 5.12095C10.4834 4.93937 10.7365 4.83809 10.9998 4.83809C11.263 4.83809 11.5162 4.93937 11.7068 5.12095L13.8788 7.29295C14.4414 7.85536 15.2043 8.17131 15.9998 8.17131C16.7953 8.17131 17.5582 7.85536 18.1208 7.29295L23.7068 1.70695C23.8889 1.51835 23.9897 1.26574 23.9875 1.00355C23.9852 0.741351 23.88 0.490539 23.6946 0.305131C23.5092 0.119723 23.2584 0.0145538 22.9962 0.0122754C22.734 0.00999693 22.4814 0.110791 22.2928 0.292949L16.7068 5.87795C16.5193 6.06542 16.265 6.17074 15.9998 6.17074C15.7346 6.17074 15.4803 6.06542 15.2928 5.87795L13.1208 3.70695C12.5582 3.14454 11.7953 2.82859 10.9998 2.82859C10.2043 2.82859 9.44137 3.14454 8.87879 3.70695L5.29279 7.29295C5.15298 7.4328 5.05777 7.61096 5.0192 7.80492C4.98064 7.99887 5.00044 8.1999 5.07611 8.3826C5.15178 8.5653 5.27992 8.72147 5.44433 8.83135C5.60874 8.94124 5.80204 8.99991 5.99979 8.99995V8.99995Z" fill="#424242"/>
</g>
<defs>
<clipPath id="clip0_320_1759">
<rect width="24" height="24" fill="white"/>
</clipPath>
</defs>
</svg>
