<svg width="32" height="40" viewBox="0 0 32 40" fill="none" xmlns="http://www.w3.org/2000/svg">
<mask id="path-1-outside-1_95_1682" maskUnits="userSpaceOnUse" x="6" y="5" width="19" height="28" fill="black">
<rect fill="white" x="6" y="5" width="19" height="28"/>
<path d="M12.6245 23.5853V17.9929H15.295C16.5517 17.9929 17.4733 17.6682 18.0598 17.0189C18.6672 16.3487 18.9709 15.5318 18.9709 14.5683C18.9709 13.8771 18.8348 13.2801 18.5625 12.7775C18.2902 12.2538 17.8922 11.8559 17.3686 11.5836C16.845 11.3113 16.2376 11.1751 15.5464 11.1751C14.7923 11.1751 14.143 11.3322 13.5984 11.6464C13.0748 11.9606 12.6664 12.3795 12.3731 12.9031C12.0799 13.4268 11.9333 14.0342 11.9333 14.7254H7.75465C7.75465 13.3849 8.05835 12.1596 8.66577 11.0495C9.27319 9.93934 10.1634 9.05964 11.3363 8.41033C12.5093 7.74007 13.944 7.40494 15.6406 7.40494C17.1906 7.40494 18.5206 7.70865 19.6307 8.31607C20.7618 8.90254 21.631 9.70894 22.2384 10.7353C22.8458 11.7616 23.1496 12.9241 23.1496 14.2227V14.5997C23.1496 15.8774 22.8458 17.0189 22.2384 18.0243C21.631 19.0297 20.7304 19.8256 19.5365 20.4121C18.3635 20.9776 16.9288 21.2813 15.2322 21.3232L17.023 19.6895L16.9602 23.5853H12.6245ZM12.2789 31V26.3501H17.3058V31H12.2789Z"/>
</mask>
<path d="M12.6245 23.5853H11.1245V25.0853H12.6245V23.5853ZM12.6245 17.9929V16.4929H11.1245V17.9929H12.6245ZM18.0598 17.0189L16.9483 16.0116L16.9467 16.0135L18.0598 17.0189ZM18.5625 12.7775L17.2317 13.4695L17.2375 13.4807L17.2436 13.4919L18.5625 12.7775ZM13.5984 11.6464L12.8488 10.3471L12.8377 10.3535L12.8267 10.3602L13.5984 11.6464ZM12.3731 12.9031L11.0644 12.1702L11.0644 12.1702L12.3731 12.9031ZM11.9333 14.7254V16.2254H13.4333V14.7254H11.9333ZM7.75465 14.7254H6.25465V16.2254H7.75465V14.7254ZM8.66577 11.0495L7.34988 10.3294L7.34988 10.3294L8.66577 11.0495ZM11.3363 8.41033L12.0628 9.72267L12.0717 9.71774L12.0805 9.71269L11.3363 8.41033ZM19.6307 8.31607L18.9107 9.63196L18.9254 9.64L18.9402 9.6477L19.6307 8.31607ZM22.2384 10.7353L23.5293 9.97129L23.5293 9.97129L22.2384 10.7353ZM22.2384 18.0243L20.9546 17.2486L20.9546 17.2486L22.2384 18.0243ZM19.5365 20.4121L20.1879 21.7633L20.1978 21.7584L19.5365 20.4121ZM15.2322 21.3232L14.2212 20.215L11.2541 22.9219L15.2692 22.8227L15.2322 21.3232ZM17.023 19.6895L18.5228 19.7136L18.5788 16.2397L16.0121 18.5813L17.023 19.6895ZM16.9602 23.5853V25.0853H18.4362L18.46 23.6095L16.9602 23.5853ZM12.2789 31H10.7789V32.5H12.2789V31ZM12.2789 26.3501V24.8501H10.7789V26.3501H12.2789ZM17.3058 26.3501H18.8058V24.8501H17.3058V26.3501ZM17.3058 31V32.5H18.8058V31H17.3058ZM14.1245 23.5853V17.9929H11.1245V23.5853H14.1245ZM12.6245 19.4929H15.295V16.4929H12.6245V19.4929ZM15.295 19.4929C16.7869 19.4929 18.1961 19.1058 19.173 18.0243L16.9467 16.0135C16.7505 16.2306 16.3165 16.4929 15.295 16.4929V19.4929ZM19.1713 18.0262C20.046 17.061 20.4709 15.8776 20.4709 14.5683H17.4709C17.4709 15.1859 17.2885 15.6363 16.9483 16.0116L19.1713 18.0262ZM20.4709 14.5683C20.4709 13.6794 20.295 12.8265 19.8814 12.063L17.2436 13.4919C17.3746 13.7338 17.4709 14.0748 17.4709 14.5683H20.4709ZM19.8933 12.0854C19.4788 11.2883 18.8578 10.6673 18.0606 10.2527L16.6766 12.9144C16.9267 13.0445 17.1016 13.2194 17.2317 13.4695L19.8933 12.0854ZM18.0606 10.2527C17.2895 9.85172 16.4372 9.67513 15.5464 9.67513V12.6751C16.0379 12.6751 16.4005 12.7708 16.6766 12.9144L18.0606 10.2527ZM15.5464 9.67513C14.5817 9.67513 13.6629 9.87747 12.8488 10.3471L14.348 12.9457C14.6231 12.787 15.003 12.6751 15.5464 12.6751V9.67513ZM12.8267 10.3602C12.083 10.8064 11.4876 11.4143 11.0644 12.1702L13.6819 13.636C13.8451 13.3446 14.0666 13.1148 14.3702 12.9326L12.8267 10.3602ZM11.0644 12.1702C10.6278 12.9498 10.4333 13.8169 10.4333 14.7254H13.4333C13.4333 14.2515 13.532 13.9037 13.6819 13.636L11.0644 12.1702ZM11.9333 13.2254H7.75465V16.2254H11.9333V13.2254ZM9.25465 14.7254C9.25465 13.6211 9.50224 12.6457 9.98167 11.7695L7.34988 10.3294C6.61447 11.6735 6.25465 13.1487 6.25465 14.7254H9.25465ZM9.98167 11.7695C10.4444 10.9237 11.123 10.2429 12.0628 9.72267L10.6098 7.09799C9.20376 7.87635 8.10195 8.95496 7.34988 10.3294L9.98167 11.7695ZM12.0805 9.71269C12.9758 9.2011 14.1392 8.90494 15.6406 8.90494V5.90494C13.7488 5.90494 12.0427 6.27904 10.5921 7.10796L12.0805 9.71269ZM15.6406 8.90494C16.9949 8.90494 18.0658 9.16965 18.9107 9.63196L20.3507 7.00018C18.9754 6.24766 17.3862 5.90494 15.6406 5.90494V8.90494ZM18.9402 9.6477C19.8397 10.1141 20.493 10.7313 20.9476 11.4993L23.5293 9.97129C22.769 8.68661 21.6838 7.69098 20.3212 6.98444L18.9402 9.6477ZM20.9476 11.4993C21.406 12.2739 21.6496 13.1682 21.6496 14.2227H24.6496C24.6496 12.6799 24.2857 11.2493 23.5293 9.97129L20.9476 11.4993ZM21.6496 14.2227V14.5997H24.6496V14.2227H21.6496ZM21.6496 14.5997C21.6496 15.6288 21.4083 16.4976 20.9546 17.2486L23.5223 18.8C24.2834 17.5402 24.6496 16.126 24.6496 14.5997H21.6496ZM20.9546 17.2486C20.5147 17.9766 19.8463 18.5887 18.8751 19.0657L20.1978 21.7584C21.6145 21.0625 22.7473 20.0827 23.5223 18.8L20.9546 17.2486ZM18.885 19.0609C17.9529 19.5104 16.7406 19.7855 15.1951 19.8237L15.2692 22.8227C17.117 22.7771 18.7742 22.4448 20.1879 21.7632L18.885 19.0609ZM16.2431 22.4313L18.034 20.7976L16.0121 18.5813L14.2212 20.215L16.2431 22.4313ZM15.5232 19.6653L15.4604 23.5611L18.46 23.6095L18.5228 19.7136L15.5232 19.6653ZM16.9602 22.0853H12.6245V25.0853H16.9602V22.0853ZM13.7789 31V26.3501H10.7789V31H13.7789ZM12.2789 27.8501H17.3058V24.8501H12.2789V27.8501ZM15.8058 26.3501V31H18.8058V26.3501H15.8058ZM17.3058 29.5H12.2789V32.5H17.3058V29.5Z" fill="#424242" mask="url(#path-1-outside-1_95_1682)"/>
</svg>
