<svg width="25" height="24" viewBox="0 0 25 24" fill="none" xmlns="http://www.w3.org/2000/svg">
<g clip-path="url(#clip0_70_3586)">
<path d="M23.1933 9.06887L15.5847 1.48287C14.643 0.546856 13.3674 0.0212402 12.0376 0.0212402C10.7078 0.0212402 9.43231 0.546856 8.49062 1.48287L0.881995 9.06887C0.601549 9.34665 0.379203 9.67717 0.227846 10.0413C0.0764882 10.4053 -0.000869719 10.7958 0.000256258 11.1899V21.0069C0.000256258 21.8025 0.317311 22.5656 0.881673 23.1282C1.44604 23.6908 2.21147 24.0069 3.0096 24.0069H21.0657C21.8638 24.0069 22.6292 23.6908 23.1936 23.1282C23.758 22.5656 24.075 21.8025 24.075 21.0069V11.1899C24.0761 10.7958 23.9988 10.4053 23.8474 10.0413C23.6961 9.67717 23.4737 9.34665 23.1933 9.06887V9.06887ZM15.047 22.0069H9.02829V18.0729C9.02829 17.2772 9.34535 16.5142 9.90971 15.9515C10.4741 15.3889 11.2395 15.0729 12.0376 15.0729C12.8358 15.0729 13.6012 15.3889 14.1656 15.9515C14.7299 16.5142 15.047 17.2772 15.047 18.0729V22.0069ZM22.0688 21.0069C22.0688 21.2721 21.9631 21.5264 21.775 21.714C21.5869 21.9015 21.3317 22.0069 21.0657 22.0069H17.0532V18.0729C17.0532 16.7468 16.5248 15.475 15.5842 14.5373C14.6436 13.5997 13.3679 13.0729 12.0376 13.0729C10.7074 13.0729 9.4317 13.5997 8.49109 14.5373C7.55049 15.475 7.02206 16.7468 7.02206 18.0729V22.0069H3.0096C2.74356 22.0069 2.48841 21.9015 2.30029 21.714C2.11217 21.5264 2.00649 21.2721 2.00649 21.0069V11.1899C2.00742 10.9248 2.11301 10.6709 2.3004 10.4829L9.90903 2.89987C10.4745 2.3388 11.2398 2.02381 12.0376 2.02381C12.8355 2.02381 13.6008 2.3388 14.1663 2.89987L21.7749 10.4859C21.9615 10.6731 22.0671 10.9259 22.0688 11.1899V21.0069Z" fill="#424242"/>
</g>
<defs>
<clipPath id="clip0_70_3586">
<rect width="24.0748" height="24" fill="white"/>
</clipPath>
</defs>
</svg>
