<svg width="30" height="27" viewBox="0 0 30 27" fill="none" xmlns="http://www.w3.org/2000/svg">
<rect width="29.5351" height="26.3421" rx="7.98246" fill="#424242"/>
<g clip-path="url(#clip0_64_935)">
<path d="M6.56716 10.1547C6.94146 9.72338 7.40409 9.37748 7.92371 9.14046C8.44333 8.90344 9.00781 8.78084 9.57894 8.78097H12.7631L12.4949 7.15175C12.4 6.57802 12.5145 5.98929 12.8175 5.49294C13.1205 4.9966 13.5919 4.62571 14.1455 4.44792C14.6992 4.27014 15.2984 4.2973 15.8337 4.52446C16.369 4.75162 16.8048 5.16364 17.0617 5.68537L18.5895 8.78097H20.7544C21.8125 8.78223 22.827 9.20314 23.5752 9.95137C24.3234 10.6996 24.7443 11.714 24.7456 12.7722V16.7634C24.7443 17.8216 24.3234 18.836 23.5752 19.5842C22.827 20.3325 21.8125 20.7534 20.7544 20.7547H10.1377C9.17705 20.7507 8.24972 20.4021 7.52441 19.7721C6.79911 19.1422 6.32403 18.2728 6.1856 17.3222L5.62283 13.331C5.54358 12.7648 5.58688 12.1882 5.7498 11.6402C5.91272 11.0922 6.19146 10.5857 6.56716 10.1547ZM23.1491 16.7634V12.7722C23.1491 12.1371 22.8968 11.528 22.4477 11.0789C21.9986 10.6298 21.3895 10.3775 20.7544 10.3775H19.1579V19.1582H20.7544C21.3895 19.1582 21.9986 18.9059 22.4477 18.4568C22.8968 18.0077 23.1491 17.3985 23.1491 16.7634ZM7.20735 13.1067L7.77091 17.0979C7.85331 17.6678 8.13753 18.1893 8.57187 18.5674C9.00623 18.9455 9.56186 19.1551 10.1377 19.1582H17.5614V10.1651C17.4862 10.0996 17.4239 10.0205 17.3778 9.93204L15.6304 6.39182C15.5649 6.27362 15.4723 6.17266 15.3601 6.09723C15.248 6.02181 15.1196 5.97407 14.9854 5.95794C14.8512 5.94181 14.7151 5.95775 14.5883 6.00445C14.4615 6.05115 14.3475 6.12728 14.2559 6.22658C14.1774 6.31778 14.1201 6.42516 14.0879 6.54106C14.0558 6.65697 14.0496 6.77854 14.0699 6.89711L14.4913 9.45149C14.5098 9.56563 14.5033 9.68242 14.4722 9.79378C14.4412 9.90515 14.3863 10.0084 14.3113 10.0965C14.2364 10.1846 14.1432 10.2553 14.0383 10.3038C13.9333 10.3523 13.8191 10.3774 13.7035 10.3775H9.57894C9.23617 10.3774 8.89738 10.4509 8.58548 10.5931C8.27358 10.7352 7.99583 10.9427 7.771 11.2014C7.54617 11.4602 7.3795 11.7641 7.28226 12.0928C7.18502 12.4215 7.15948 12.7673 7.20735 13.1067Z" fill="#E4E4E6"/>
</g>
<defs>
<clipPath id="clip0_64_935">
<rect width="19.1579" height="19.1579" fill="white" transform="matrix(-1 0 0 1 24.7456 3.99121)"/>
</clipPath>
</defs>
</svg>
