<svg width="24" height="24" viewBox="0 0 24 24" fill="none" xmlns="http://www.w3.org/2000/svg">
<g clip-path="url(#clip0_111_3012)">
<path d="M14.0002 7.0002C14.0002 7.39577 13.8829 7.78245 13.6631 8.11134C13.4433 8.44024 13.131 8.69659 12.7655 8.84796C12.4001 8.99934 11.9979 9.03895 11.61 8.96178C11.222 8.8846 10.8656 8.69412 10.5859 8.41442C10.3062 8.13471 10.1158 7.77835 10.0386 7.39039C9.96141 7.00242 10.001 6.60029 10.1524 6.23484C10.3038 5.86939 10.5601 5.55703 10.889 5.33726C11.2179 5.1175 11.6046 5.0002 12.0002 5.0002C12.5306 5.0002 13.0393 5.21092 13.4144 5.58599C13.7894 5.96106 14.0002 6.46977 14.0002 7.0002ZM16.9582 12.1842L13.9002 15.2152C13.652 15.4654 13.3568 15.6639 13.0316 15.7994C12.7064 15.9349 12.3575 16.0047 12.0052 16.0047C11.6528 16.0047 11.304 15.9349 10.9787 15.7994C10.6535 15.6639 10.3583 15.4654 10.1102 15.2152L7.05415 12.2002C5.74191 10.8474 5.00702 9.03735 5.00479 7.15263C5.00255 5.26792 5.73313 3.45616 7.04215 2.1002C7.68552 1.43549 8.45597 0.906937 9.30771 0.545965C10.1595 0.184994 11.0751 -0.00102198 12.0002 -0.00102198C12.9252 -0.00102198 13.8409 0.184994 14.6926 0.545965C15.5443 0.906937 16.3148 1.43549 16.9582 2.1002C18.2652 3.45324 18.9957 5.26096 18.9957 7.1422C18.9957 9.02344 18.2652 10.8312 16.9582 12.1842ZM16.0002 7.0002C16.0002 6.20908 15.7656 5.43572 15.326 4.77792C14.8865 4.12013 14.2618 3.60744 13.5309 3.30469C12.8 3.00194 11.9957 2.92272 11.2198 3.07706C10.4439 3.2314 9.73114 3.61237 9.17173 4.17178C8.61232 4.73119 8.23135 5.44392 8.07701 6.21984C7.92267 6.99577 8.00188 7.80003 8.30463 8.53094C8.60738 9.26184 9.12008 9.88656 9.77787 10.3261C10.4357 10.7656 11.209 11.0002 12.0002 11.0002C13.061 11.0002 14.0784 10.5788 14.8286 9.82863C15.5787 9.07849 16.0002 8.06107 16.0002 7.0002ZM20.7532 9.2002C20.3882 10.8529 19.5695 12.3712 18.3892 13.5842L15.3112 16.6372C14.8781 17.0713 14.3638 17.4158 13.7976 17.6511C13.2313 17.8863 12.6243 18.0077 12.0112 18.0082C11.3983 18.0084 10.7915 17.8879 10.2252 17.6535C9.65902 17.4191 9.14453 17.0755 8.71115 16.6422L5.64815 13.6192C4.48329 12.4234 3.66576 10.9332 3.28315 9.3082C2.63364 9.54628 2.03978 9.91485 1.53815 10.3912C1.0492 10.8561 0.660527 11.416 0.396032 12.0367C0.131537 12.6573 -0.00318558 13.3256 0.000152085 14.0002V18.0752C0.00225368 19.1565 0.353944 20.2082 1.00274 21.0733C1.65154 21.9383 2.56266 22.5704 3.60015 22.8752L6.47015 23.7752C6.95221 23.9252 7.45429 24.0011 7.95915 24.0002C8.41714 23.9996 8.87295 23.9371 9.31415 23.8142L15.0942 22.1042C15.609 21.9631 16.1523 21.9631 16.6672 22.1042L19.0542 22.9042C19.6425 23.0474 20.2556 23.0552 20.8473 22.9269C21.4391 22.7987 21.994 22.5378 22.4702 22.1639C22.9464 21.79 23.3316 21.3129 23.5966 20.7685C23.8616 20.2241 23.9996 19.6267 24.0002 19.0212V13.8722C23.9967 12.856 23.6843 11.8649 23.1044 11.0304C22.5244 10.196 21.7044 9.55766 20.7532 9.2002Z" fill="#424242"/>
</g>
<defs>
<clipPath id="clip0_111_3012">
<rect width="24" height="24" fill="white"/>
</clipPath>
</defs>
</svg>
