<svg width="24" height="24" viewBox="0 0 24 24" fill="none" xmlns="http://www.w3.org/2000/svg">
<g clip-path="url(#clip0_12_2715)">
<path d="M20.8589 15.331L17.0869 21.486C16.6727 22.166 16.1088 22.7426 15.4382 23.1718C14.7676 23.601 14.0079 23.8716 13.2169 23.963C13.0085 23.9877 12.7988 24.0001 12.5889 24C11.5144 23.9985 10.4666 23.665 9.58894 23.045C8.68199 23.7245 7.56167 24.0566 6.43095 23.9812C5.30022 23.9058 4.2339 23.4279 3.42518 22.6341C2.61647 21.8402 2.11885 20.783 2.0225 19.6538C1.92614 18.5247 2.23742 17.3984 2.89994 16.479L1.58494 15.166C1.02343 14.6045 0.596253 13.9232 0.335389 13.1731C0.0745246 12.4231 -0.0132627 11.6238 0.0786013 10.835C0.170465 10.0462 0.4396 9.28842 0.865849 8.61841C1.2921 7.94839 1.86441 7.38349 2.53994 6.96602L8.30694 3.40002C9.86915 2.3988 11.7063 1.91337 13.5592 2.01223C15.4121 2.11109 17.1871 2.78925 18.6339 3.95102L20.2929 2.29202C20.3852 2.19651 20.4955 2.12033 20.6175 2.06792C20.7395 2.01551 20.8708 1.98792 21.0035 1.98677C21.1363 1.98562 21.268 2.01092 21.3909 2.0612C21.5138 2.11148 21.6254 2.18573 21.7193 2.27963C21.8132 2.37352 21.8875 2.48517 21.9378 2.60807C21.988 2.73096 22.0133 2.86264 22.0122 2.99542C22.011 3.1282 21.9834 3.25942 21.931 3.38143C21.8786 3.50343 21.8024 3.61377 21.7069 3.70602L20.0499 5.36402C21.1613 6.75626 21.8319 8.44844 21.976 10.224C22.1202 11.9996 21.7312 13.7778 20.8589 15.331ZM8.06494 21.647L4.34594 17.927C4.05531 18.4468 3.94322 19.0475 4.02686 19.6371C4.11049 20.2267 4.38523 20.7726 4.80894 21.191C5.23636 21.597 5.78001 21.8593 6.36383 21.941C6.94765 22.0228 7.54243 21.92 8.06494 21.647ZM17.9859 6.04702C16.8755 4.92586 15.4137 4.22004 13.8451 4.04766C12.2766 3.87528 10.6964 4.24678 9.36894 5.10002L3.59194 8.66602C3.17298 8.92499 2.81804 9.27538 2.55369 9.69097C2.28935 10.1066 2.12246 10.5766 2.06551 11.0658C2.00857 11.555 2.06304 12.0508 2.22487 12.516C2.38669 12.9812 2.65166 13.4037 2.99994 13.752L10.2899 21.043C10.6388 21.3923 11.0623 21.6578 11.5285 21.8198C11.9948 21.9818 12.4917 22.036 12.982 21.9782C13.4722 21.9204 13.9429 21.7523 14.3588 21.4864C14.7746 21.2205 15.1248 20.8638 15.3829 20.443L19.1379 14.318C19.8714 13.0007 20.1556 11.4804 19.9478 9.98711C19.7399 8.49383 19.0512 7.10892 17.9859 6.04202V6.04702ZM19.2649 24C19.0537 24.0004 18.8479 23.9339 18.6768 23.8101C18.5057 23.6863 18.3782 23.5115 18.3126 23.3107C18.247 23.11 18.2466 22.8936 18.3115 22.6927C18.3764 22.4917 18.5033 22.3164 18.6739 22.192C20.4249 20.8756 21.61 18.9427 21.9889 16.785C22.0155 16.6551 22.0676 16.5318 22.1423 16.4223C22.217 16.3127 22.3127 16.2191 22.4239 16.1469C22.535 16.0746 22.6595 16.0252 22.7899 16.0016C22.9203 15.9779 23.0542 15.9803 23.1837 16.0088C23.3131 16.0373 23.4357 16.0913 23.5441 16.1676C23.6525 16.2439 23.7447 16.341 23.8153 16.4532C23.8858 16.5655 23.9333 16.6906 23.9551 16.8214C23.9768 16.9522 23.9724 17.086 23.9419 17.215C23.4519 19.8467 21.9933 22.1991 19.8539 23.808C19.6829 23.9328 19.4766 24 19.2649 24ZM0.999937 5.73902C0.81524 5.7382 0.634379 5.68624 0.477408 5.5889C0.320437 5.49157 0.19349 5.35266 0.110642 5.18759C0.0277933 5.02251 -0.00771885 4.83772 0.00804285 4.65369C0.0238045 4.46967 0.0902242 4.2936 0.199937 4.14502C1.83092 1.96561 4.23176 0.490343 6.91294 0.0200208C7.17285 -0.0330224 7.44319 0.0193565 7.66448 0.165635C7.88577 0.311913 8.03989 0.540109 8.09294 0.800021C8.14598 1.05993 8.0936 1.33027 7.94732 1.55156C7.80104 1.77286 7.57285 1.92698 7.31294 1.98002C5.11091 2.34364 3.13517 3.54565 1.79994 5.33402C1.70731 5.45914 1.58676 5.5609 1.44788 5.63121C1.30899 5.70152 1.15561 5.73844 0.999937 5.73902Z" fill="#212121"/>
</g>
<defs>
<clipPath id="clip0_12_2715">
<rect width="24" height="24" fill="white"/>
</clipPath>
</defs>
</svg>
