<svg width="13" height="13" viewBox="0 0 13 13" fill="none" xmlns="http://www.w3.org/2000/svg">
<g clip-path="url(#clip0_64_907)">
<path d="M6.13895 3.79169C5.73423 3.79169 5.3386 3.9117 5.00209 4.13655C4.66558 4.3614 4.4033 4.68099 4.24842 5.0549C4.09354 5.42881 4.05301 5.84025 4.13197 6.2372C4.21093 6.63414 4.40582 6.99875 4.692 7.28493C4.97818 7.57111 5.34279 7.766 5.73974 7.84496C6.13668 7.92392 6.54812 7.88339 6.92203 7.72851C7.29594 7.57364 7.61553 7.31136 7.84038 6.97484C8.06523 6.63833 8.18524 6.2427 8.18524 5.83798C8.18524 5.29527 7.96965 4.77479 7.5859 4.39103C7.20214 4.00728 6.68166 3.79169 6.13895 3.79169ZM6.13895 6.86113C5.93659 6.86113 5.73877 6.80112 5.57052 6.6887C5.40226 6.57627 5.27112 6.41648 5.19368 6.22952C5.11624 6.04257 5.09598 5.83685 5.13546 5.63838C5.17494 5.43991 5.27238 5.2576 5.41547 5.11451C5.55856 4.97142 5.74087 4.87397 5.93934 4.83449C6.13781 4.79502 6.34353 4.81528 6.53049 4.89272C6.71745 4.97016 6.87724 5.1013 6.98967 5.26955C7.10209 5.43781 7.1621 5.63562 7.1621 5.83798C7.1621 6.10934 7.0543 6.36958 6.86242 6.56146C6.67055 6.75334 6.4103 6.86113 6.13895 6.86113Z" fill="#FF353A"/>
<path d="M6.13887 13.0002C5.7081 13.0024 5.28307 12.9013 4.89936 12.7055C4.51566 12.5097 4.18445 12.2248 3.93348 11.8747C1.98387 9.18537 0.994995 7.16363 0.994995 5.86525C0.994995 4.50101 1.53694 3.19265 2.5016 2.22798C3.46627 1.26332 4.77463 0.721375 6.13887 0.721375C7.50311 0.721375 8.81148 1.26332 9.77614 2.22798C10.7408 3.19265 11.2827 4.50101 11.2827 5.86525C11.2827 7.16363 10.2939 9.18537 8.34427 11.8747C8.09329 12.2248 7.76209 12.5097 7.37838 12.7055C6.99468 12.9013 6.56965 13.0024 6.13887 13.0002V13.0002ZM6.13887 1.83814C5.07092 1.83936 4.04705 2.26414 3.2919 3.0193C2.53674 3.77446 2.11196 4.79832 2.11074 5.86628C2.11074 6.89454 3.07915 8.79606 4.83692 11.2204C4.98614 11.4259 5.18191 11.5932 5.4082 11.7086C5.63449 11.8239 5.88488 11.8841 6.13887 11.8841C6.39287 11.8841 6.64325 11.8239 6.86955 11.7086C7.09584 11.5932 7.2916 11.4259 7.44083 11.2204C9.1986 8.79606 10.167 6.89454 10.167 5.86628C10.1658 4.79832 9.741 3.77446 8.98585 3.0193C8.23069 2.26414 7.20683 1.83936 6.13887 1.83814V1.83814Z" fill="#FF353A"/>
</g>
<defs>
<clipPath id="clip0_64_907">
<rect y="0.722229" width="12.2778" height="12.2778" rx="6.13889" fill="white"/>
</clipPath>
</defs>
</svg>
