<svg width="24" height="24" viewBox="0 0 24 24" fill="none" xmlns="http://www.w3.org/2000/svg">
<g clip-path="url(#clip0_111_3015)">
<path d="M12 0.0424614C9.35392 0.0453725 6.81706 1.09774 4.94592 2.96869C3.07478 4.83964 2.02216 7.3764 2.01898 10.0225C2.01898 12.5925 4.00898 16.6145 7.93398 21.9765C8.40124 22.6166 9.01304 23.1374 9.71958 23.4964C10.4261 23.8554 11.2075 24.0425 12 24.0425C12.7925 24.0425 13.5738 23.8554 14.2804 23.4964C14.9869 23.1374 15.5987 22.6166 16.066 21.9765C19.991 16.6145 21.981 12.5925 21.981 10.0225C21.9778 7.3764 20.9252 4.83964 19.054 2.96869C17.1829 1.09774 14.646 0.0453725 12 0.0424614ZM12 14.0005C11.2089 14.0005 10.4355 13.7659 9.7777 13.3263C9.1199 12.8868 8.60721 12.2621 8.30446 11.5312C8.00171 10.8003 7.9225 9.99603 8.07684 9.2201C8.23118 8.44418 8.61214 7.73145 9.17155 7.17204C9.73096 6.61263 10.4437 6.23166 11.2196 6.07732C11.9955 5.92298 12.7998 6.00219 13.5307 6.30494C14.2616 6.6077 14.8863 7.12038 15.3259 7.77818C15.7654 8.43598 16 9.20934 16 10.0005C16 11.0613 15.5786 12.0787 14.8284 12.8289C14.0783 13.579 13.0608 14.0005 12 14.0005Z" fill="#FF353A"/>
</g>
<defs>
<clipPath id="clip0_111_3015">
<rect width="24" height="24" fill="white"/>
</clipPath>
</defs>
</svg>

