<svg width="24" height="24" viewBox="0 0 24 24" fill="none" xmlns="http://www.w3.org/2000/svg">
<g clip-path="url(#clip0_204_4255)">
<path d="M11.9999 0.0424652C9.35386 0.0453763 6.817 1.09774 4.94586 2.96869C3.07472 4.83965 2.0221 7.37641 2.01892 10.0225C2.01892 12.5925 4.00892 16.6145 7.93392 21.9765C8.40118 22.6166 9.01298 23.1374 9.71952 23.4964C10.4261 23.8554 11.2074 24.0425 11.9999 24.0425C12.7924 24.0425 13.5738 23.8554 14.2803 23.4964C14.9869 23.1374 15.5987 22.6166 16.0659 21.9765C19.9909 16.6145 21.9809 12.5925 21.9809 10.0225C21.9777 7.37641 20.9251 4.83965 19.054 2.96869C17.1828 1.09774 14.646 0.0453763 11.9999 0.0424652ZM11.9999 14.0005C11.2088 14.0005 10.4354 13.7659 9.77764 13.3263C9.11984 12.8868 8.60715 12.2621 8.3044 11.5312C8.00165 10.8003 7.92244 9.99603 8.07678 9.22011C8.23112 8.44418 8.61208 7.73145 9.17149 7.17204C9.7309 6.61263 10.4436 6.23167 11.2196 6.07733C11.9955 5.92298 12.7998 6.0022 13.5307 6.30495C14.2616 6.6077 14.8863 7.12039 15.3258 7.77819C15.7653 8.43598 15.9999 9.20934 15.9999 10.0005C15.9999 11.0613 15.5785 12.0787 14.8283 12.8289C14.0782 13.579 13.0608 14.0005 11.9999 14.0005Z" fill="#ff353a"/>
</g>
<defs>
<clipPath id="clip0_204_4255">
<rect width="24" height="24" fill="white"/>
</clipPath>
</defs>
</svg>
