<svg width="24" height="24" viewBox="0 0 24 24" fill="none" xmlns="http://www.w3.org/2000/svg">
<g clip-path="url(#clip0_111_1772)">
<path d="M6.99982 24C6.86821 24.0007 6.73775 23.9755 6.61591 23.9257C6.49407 23.876 6.38326 23.8027 6.28982 23.71C6.19609 23.617 6.12169 23.5064 6.07093 23.3846C6.02016 23.2627 5.99402 23.132 5.99402 23C5.99402 22.868 6.02016 22.7373 6.07093 22.6154C6.12169 22.4935 6.19609 22.3829 6.28982 22.29L14.4598 14.12C15.0216 13.5575 15.3372 12.795 15.3372 12C15.3372 11.205 15.0216 10.4425 14.4598 9.87999L6.28982 1.71C6.10151 1.5217 5.99573 1.2663 5.99573 1C5.99573 0.7337 6.10151 0.478305 6.28982 0.290002C6.47812 0.101698 6.73352 -0.00408936 6.99982 -0.00408936C7.26612 -0.00408936 7.52151 0.101698 7.70982 0.290002L15.8798 8.45999C16.3454 8.92445 16.7149 9.4762 16.9669 10.0837C17.219 10.6911 17.3488 11.3423 17.3488 12C17.3488 12.6577 17.219 13.3089 16.9669 13.9163C16.7149 14.5238 16.3454 15.0755 15.8798 15.54L7.70982 23.71C7.61638 23.8027 7.50556 23.876 7.38372 23.9257C7.26189 23.9755 7.13142 24.0007 6.99982 24Z" fill="#424242"/>
</g>
<defs>
<clipPath id="clip0_111_1772">
<rect width="24" height="24" fill="white"/>
</clipPath>
</defs>
</svg>
