<svg width="25" height="24" viewBox="0 0 25 24" fill="none" xmlns="http://www.w3.org/2000/svg">
<g clip-path="url(#clip0_70_3588)">
<path d="M23.7815 22.2938L17.8125 16.3248C19.4391 14.3354 20.2389 11.7969 20.0463 9.23432C19.8538 6.67179 18.6837 4.28129 16.7781 2.55728C14.8724 0.833269 12.3771 -0.0923492 9.80813 -0.0281174C7.23918 0.0361144 4.79319 1.08528 2.9761 2.90237C1.15901 4.71946 0.109845 7.16545 0.0456131 9.7344C-0.0186188 12.3034 0.907 14.7987 2.63101 16.7043C4.35502 18.61 6.74552 19.7801 9.30805 19.9726C11.8706 20.1651 14.4091 19.3654 16.3985 17.7388L22.3675 23.7078C22.5561 23.8899 22.8087 23.9907 23.0709 23.9884C23.3331 23.9862 23.5839 23.881 23.7693 23.6956C23.9547 23.5102 24.0599 23.2594 24.0622 22.9972C24.0644 22.735 23.9637 22.4824 23.7815 22.2938ZM10.0745 18.0008C8.49224 18.0008 6.94552 17.5316 5.62993 16.6525C4.31433 15.7735 3.28895 14.524 2.68345 13.0622C2.07795 11.6004 1.91952 9.99189 2.22821 8.44004C2.53689 6.88819 3.29881 5.46272 4.41763 4.3439C5.53646 3.22508 6.96192 2.46316 8.51377 2.15448C10.0656 1.84579 11.6741 2.00422 13.136 2.60972C14.5978 3.21522 15.8472 4.2406 16.7262 5.5562C17.6053 6.87179 18.0745 8.41851 18.0745 10.0008C18.0721 12.1218 17.2285 14.1552 15.7287 15.655C14.2289 17.1548 12.1955 17.9984 10.0745 18.0008Z" fill="#424242"/>
</g>
<defs>
<clipPath id="clip0_70_3588">
<rect width="24" height="24" fill="white" transform="translate(0.074707)"/>
</clipPath>
</defs>
</svg>
