<svg width="24" height="24" viewBox="0 0 24 24" fill="none" xmlns="http://www.w3.org/2000/svg">
<g clip-path="url(#clip0_111_2481)">
<path d="M12 8.00061C11.2089 8.00061 10.4355 8.23521 9.77772 8.67473C9.11993 9.11426 8.60723 9.73897 8.30448 10.4699C8.00173 11.2008 7.92252 12.005 8.07686 12.781C8.2312 13.5569 8.61216 14.2696 9.17157 14.829C9.73098 15.3884 10.4437 15.7694 11.2196 15.9238C11.9956 16.0781 12.7998 15.9989 13.5307 15.6961C14.2616 15.3934 14.8864 14.8807 15.3259 14.2229C15.7654 13.5651 16 12.7917 16 12.0006C16 10.9397 15.5786 9.92233 14.8284 9.17218C14.0783 8.42204 13.0609 8.00061 12 8.00061ZM12 14.0006C11.6044 14.0006 11.2178 13.8833 10.8889 13.6635C10.56 13.4438 10.3036 13.1314 10.1522 12.766C10.0009 12.4005 9.96126 11.9984 10.0384 11.6104C10.1156 11.2225 10.3061 10.8661 10.5858 10.5864C10.8655 10.3067 11.2219 10.1162 11.6098 10.039C11.9978 9.96187 12.3999 10.0015 12.7654 10.1529C13.1308 10.3042 13.4432 10.5606 13.6629 10.8895C13.8827 11.2184 14 11.605 14 12.0006C14 12.531 13.7893 13.0398 13.4142 13.4148C13.0391 13.7899 12.5304 14.0006 12 14.0006Z" fill="#424242"/>
<path d="M21.2943 13.9L20.8503 13.644C21.0502 12.5564 21.0502 11.4416 20.8503 10.354L21.2943 10.098C21.6357 9.90102 21.935 9.63871 22.1751 9.32606C22.4151 9.01341 22.5913 8.65654 22.6934 8.27582C22.7956 7.8951 22.8217 7.49799 22.7704 7.10716C22.7191 6.71633 22.5913 6.33944 22.3943 5.998C22.1973 5.65656 21.935 5.35727 21.6223 5.1172C21.3097 4.87714 20.9528 4.70101 20.5721 4.59886C20.1914 4.49672 19.7943 4.47056 19.4034 4.52189C19.0126 4.57321 18.6357 4.70102 18.2943 4.898L17.8493 5.155C17.0088 4.43692 16.043 3.88025 15.0003 3.513V3C15.0003 2.20435 14.6842 1.44129 14.1216 0.87868C13.559 0.31607 12.7959 0 12.0003 0C11.2046 0 10.4416 0.31607 9.87897 0.87868C9.31636 1.44129 9.00029 2.20435 9.00029 3V3.513C7.95767 3.88157 6.99214 4.4396 6.15229 5.159L5.70529 4.9C5.01572 4.50218 4.19637 4.39457 3.42747 4.60086C2.65857 4.80715 2.00311 5.31044 1.60529 6C1.20746 6.68956 1.09986 7.50892 1.30615 8.27782C1.51244 9.04672 2.01572 9.70218 2.70529 10.1L3.14929 10.356C2.9494 11.4436 2.9494 12.5584 3.14929 13.646L2.70529 13.902C2.01572 14.2998 1.51244 14.9553 1.30615 15.7242C1.09986 16.4931 1.20746 17.3124 1.60529 18.002C2.00311 18.6916 2.65857 19.1948 3.42747 19.4011C4.19637 19.6074 5.01572 19.4998 5.70529 19.102L6.15029 18.845C6.99105 19.5632 7.95727 20.1199 9.00029 20.487V21C9.00029 21.7956 9.31636 22.5587 9.87897 23.1213C10.4416 23.6839 11.2046 24 12.0003 24C12.7959 24 13.559 23.6839 14.1216 23.1213C14.6842 22.5587 15.0003 21.7956 15.0003 21V20.487C16.0429 20.1184 17.0084 19.5604 17.8483 18.841L18.2953 19.099C18.9849 19.4968 19.8042 19.6044 20.5731 19.3981C21.342 19.1918 21.9975 18.6886 22.3953 17.999C22.7931 17.3094 22.9007 16.4901 22.6944 15.7212C22.4881 14.9523 21.9849 14.2968 21.2953 13.899L21.2943 13.9ZM18.7463 10.124C19.0849 11.3511 19.0849 12.6469 18.7463 13.874C18.6872 14.0876 18.7006 14.3147 18.7846 14.5198C18.8686 14.7249 19.0183 14.8963 19.2103 15.007L20.2943 15.633C20.5241 15.7656 20.6918 15.9841 20.7605 16.2403C20.8293 16.4966 20.7934 16.7697 20.6608 16.9995C20.5282 17.2293 20.3097 17.397 20.0534 17.4658C19.7972 17.5345 19.5241 17.4986 19.2943 17.366L18.2083 16.738C18.0162 16.6267 17.7925 16.5826 17.5725 16.6124C17.3526 16.6423 17.1488 16.7445 16.9933 16.903C16.1032 17.8117 14.9819 18.46 13.7503 18.778C13.5353 18.8333 13.3448 18.9585 13.2089 19.1339C13.0729 19.3094 12.9992 19.525 12.9993 19.747V21C12.9993 21.2652 12.8939 21.5196 12.7064 21.7071C12.5189 21.8946 12.2645 22 11.9993 22C11.7341 22 11.4797 21.8946 11.2922 21.7071C11.1046 21.5196 10.9993 21.2652 10.9993 21V19.748C10.9994 19.526 10.9257 19.3104 10.7897 19.1349C10.6537 18.9595 10.4633 18.8343 10.2483 18.779C9.01663 18.4597 7.89562 17.81 7.00629 16.9C6.85081 16.7415 6.64702 16.6393 6.42704 16.6094C6.20706 16.5796 5.98339 16.6237 5.79129 16.735L4.70729 17.362C4.59352 17.4287 4.46768 17.4722 4.33701 17.4901C4.20635 17.508 4.07344 17.4998 3.94594 17.4661C3.81844 17.4324 3.69887 17.3738 3.59411 17.2937C3.48935 17.2136 3.40146 17.1135 3.33552 16.9993C3.26958 16.8851 3.22688 16.759 3.20988 16.6282C3.19289 16.4974 3.20192 16.3646 3.23648 16.2373C3.27103 16.11 3.33042 15.9909 3.41122 15.8866C3.49202 15.7824 3.59264 15.6952 3.70729 15.63L4.79129 15.004C4.98324 14.8933 5.13296 14.7219 5.21695 14.5168C5.30093 14.3117 5.31442 14.0846 5.25529 13.871C4.91664 12.6439 4.91664 11.3481 5.25529 10.121C5.31335 9.90788 5.29922 9.68153 5.2151 9.47729C5.13098 9.27305 4.9816 9.10241 4.79029 8.992L3.70629 8.366C3.47648 8.23339 3.30876 8.01492 3.24003 7.75865C3.17129 7.50239 3.20718 7.22931 3.33979 6.9995C3.4724 6.76969 3.69086 6.60197 3.94713 6.53324C4.2034 6.46451 4.47648 6.50039 4.70629 6.633L5.79229 7.261C5.98387 7.37251 6.20707 7.41721 6.42681 7.38807C6.64656 7.35893 6.8504 7.25759 7.00629 7.1C7.89637 6.19134 9.01771 5.54302 10.2493 5.225C10.4649 5.16956 10.6559 5.04375 10.7919 4.8675C10.928 4.69125 11.0013 4.47464 11.0003 4.252V3C11.0003 2.73478 11.1056 2.48043 11.2932 2.29289C11.4807 2.10536 11.7351 2 12.0003 2C12.2655 2 12.5199 2.10536 12.7074 2.29289C12.8949 2.48043 13.0003 2.73478 13.0003 3V4.252C13.0002 4.47396 13.0739 4.68964 13.2099 4.86508C13.3458 5.04052 13.5363 5.16573 13.7513 5.221C14.9833 5.54015 16.1047 6.18988 16.9943 7.1C17.1498 7.25847 17.3535 7.36069 17.5735 7.39057C17.7935 7.42044 18.0172 7.37626 18.2093 7.265L19.2933 6.638C19.4071 6.5713 19.5329 6.52777 19.6636 6.5099C19.7942 6.49204 19.9271 6.50019 20.0546 6.5339C20.1821 6.56761 20.3017 6.6262 20.4065 6.70631C20.5112 6.78642 20.5991 6.88646 20.6651 7.00067C20.731 7.11488 20.7737 7.24101 20.7907 7.37179C20.8077 7.50257 20.7987 7.63542 20.7641 7.76269C20.7295 7.88997 20.6702 8.00915 20.5894 8.11337C20.5086 8.2176 20.4079 8.30482 20.2933 8.37L19.2093 8.996C19.0183 9.10671 18.8694 9.27748 18.7856 9.48169C18.7019 9.68591 18.688 9.9121 18.7463 10.125V10.124Z" fill="#424242"/>
</g>
<defs>
<clipPath id="clip0_111_2481">
<rect width="24" height="24" fill="white"/>
</clipPath>
</defs>
</svg>
