<svg width="12" height="12" viewBox="0 0 12 12" fill="none" xmlns="http://www.w3.org/2000/svg">
<g clip-path="url(#clip0_202_1796)">
<path d="M11.3865 3.86069C11.152 3.59049 10.8623 3.37383 10.5368 3.22537C10.2113 3.0769 9.85774 3.00011 9.5 3.00019H7.5055L7.6735 1.97969C7.73294 1.62032 7.66123 1.25156 7.47143 0.940658C7.28164 0.629761 6.98641 0.397445 6.6396 0.286085C6.29279 0.174724 5.9175 0.191739 5.58219 0.334026C5.24688 0.476314 4.97388 0.734391 4.813 1.06119L3.856 3.00019H2.5C1.8372 3.00098 1.20178 3.26463 0.73311 3.7333C0.264441 4.20197 0.000793929 4.83739 0 5.50019L0 8.00019C0.000793929 8.66299 0.264441 9.29841 0.73311 9.76708C1.20178 10.2357 1.8372 10.4994 2.5 10.5002H9.15C9.75173 10.4977 10.3326 10.2793 10.7869 9.88477C11.2412 9.49019 11.5388 8.94565 11.6255 8.35019L11.978 5.85019C12.0276 5.49556 12.0005 5.1344 11.8985 4.79115C11.7964 4.44791 11.6218 4.1306 11.3865 3.86069ZM1 8.00019V5.50019C1 5.10236 1.15804 4.72083 1.43934 4.43953C1.72064 4.15822 2.10218 4.00019 2.5 4.00019H3.5V9.50019H2.5C2.10218 9.50019 1.72064 9.34215 1.43934 9.06085C1.15804 8.77954 1 8.39801 1 8.00019ZM10.9855 5.70969L10.6325 8.20969C10.5809 8.56668 10.4029 8.8933 10.1308 9.13013C9.85873 9.36696 9.5107 9.49827 9.15 9.50019H4.5V3.86719C4.54712 3.82614 4.58613 3.77661 4.615 3.72119L5.7095 1.50369C5.75055 1.42965 5.80857 1.36641 5.87881 1.31917C5.94905 1.27192 6.0295 1.24202 6.11355 1.23192C6.1976 1.22181 6.28284 1.2318 6.36228 1.26105C6.44172 1.2903 6.51308 1.33799 6.5705 1.40019C6.61962 1.45731 6.65554 1.52457 6.67567 1.59717C6.69581 1.66977 6.69968 1.74592 6.687 1.82019L6.423 3.42019C6.41141 3.49168 6.41549 3.56483 6.43496 3.63459C6.45443 3.70435 6.48882 3.76904 6.53575 3.8242C6.58268 3.87936 6.64104 3.92367 6.70678 3.95405C6.77252 3.98444 6.84408 4.00018 6.9165 4.00019H9.5C9.7147 4.00016 9.92691 4.04622 10.1223 4.13526C10.3176 4.2243 10.4916 4.35424 10.6324 4.51631C10.7733 4.67837 10.8777 4.86877 10.9386 5.07466C10.9995 5.28054 11.0155 5.49709 10.9855 5.70969Z" fill="#FBFBFB"/>
</g>
<defs>
<clipPath id="clip0_202_1796">
<rect width="12" height="12" fill="white"/>
</clipPath>
</defs>
</svg>
