<svg width="25" height="24" viewBox="0 0 25 24" fill="none" xmlns="http://www.w3.org/2000/svg">
<g clip-path="url(#clip0_70_3584)">
<path d="M12.1122 11.9999C13.3026 11.9999 14.4662 11.648 15.456 10.9887C16.4458 10.3294 17.2172 9.39234 17.6727 8.29598C18.1283 7.19962 18.2475 5.99323 18.0152 4.82934C17.783 3.66545 17.2098 2.59636 16.3681 1.75724C15.5263 0.918125 14.4539 0.34668 13.2864 0.115169C12.1189 -0.116342 10.9087 0.00247765 9.80894 0.456603C8.70917 0.910729 7.76918 1.67976 7.10784 2.66646C6.4465 3.65315 6.09351 4.81319 6.09351 5.99988C6.0951 7.59069 6.72972 9.11589 7.8581 10.2408C8.98648 11.3656 10.5164 11.9983 12.1122 11.9999ZM12.1122 1.99988C12.9058 1.99988 13.6816 2.23448 14.3414 2.674C15.0012 3.11353 15.5155 3.73824 15.8192 4.46915C16.1229 5.20005 16.2024 6.00432 16.0476 6.78024C15.8927 7.55617 15.5106 8.2689 14.9494 8.82831C14.3883 9.38772 13.6733 9.76868 12.895 9.92302C12.1166 10.0774 11.3099 9.99815 10.5767 9.6954C9.84351 9.39265 9.21685 8.87996 8.77596 8.22216C8.33506 7.56436 8.09974 6.79101 8.09974 5.99988C8.09974 4.93901 8.52248 3.9216 9.27496 3.17145C10.0274 2.42131 11.048 1.99988 12.1122 1.99988V1.99988Z" fill="#424242"/>
<path d="M12.112 14.0006C9.71845 14.0033 7.42368 14.9523 5.73117 16.6396C4.03866 18.3268 3.08664 20.6145 3.08398 23.0006C3.08398 23.2658 3.18967 23.5202 3.37779 23.7077C3.56591 23.8953 3.82106 24.0006 4.0871 24.0006C4.35314 24.0006 4.60829 23.8953 4.79641 23.7077C4.98453 23.5202 5.09021 23.2658 5.09021 23.0006C5.09021 21.1441 5.83001 19.3636 7.14685 18.0509C8.4637 16.7381 10.2497 16.0006 12.112 16.0006C13.9743 16.0006 15.7603 16.7381 17.0772 18.0509C18.394 19.3636 19.1338 21.1441 19.1338 23.0006C19.1338 23.2658 19.2395 23.5202 19.4276 23.7077C19.6158 23.8953 19.8709 24.0006 20.1369 24.0006C20.403 24.0006 20.6581 23.8953 20.8463 23.7077C21.0344 23.5202 21.1401 23.2658 21.1401 23.0006C21.1374 20.6145 20.1854 18.3268 18.4929 16.6396C16.8004 14.9523 14.5056 14.0033 12.112 14.0006V14.0006Z" fill="#424242"/>
</g>
<defs>
<clipPath id="clip0_70_3584">
<rect width="24.0748" height="24" fill="white" transform="translate(0.074707)"/>
</clipPath>
</defs>
</svg>
